<svg width="30" height="26" viewBox="0 0 30 26" fill="none" xmlns="http://www.w3.org/2000/svg">
    <g clip-path="url(#clip0_1115_67)">
        <path
            d="M15 6.49998C16.375 6.49998 17.5 7.47498 17.5 8.66665C17.5 9.85831 16.375 10.8333 15 10.8333C13.625 10.8333 12.5 9.85831 12.5 8.66665C12.5 7.47498 13.625 6.49998 15 6.49998ZM15 17.3333C18.375 17.3333 22.25 18.7308 22.5 19.5H7.5C7.7875 18.72 11.6375 17.3333 15 17.3333ZM15 4.33331C12.2375 4.33331 10 6.27248 10 8.66665C10 11.0608 12.2375 13 15 13C17.7625 13 20 11.0608 20 8.66665C20 6.27248 17.7625 4.33331 15 4.33331ZM15 15.1666C11.6625 15.1666 5 16.6183 5 19.5V21.6666H25V19.5C25 16.6183 18.3375 15.1666 15 15.1666Z"
            fill="#8C59B5" />
    </g>
    <defs>
        <clipPath id="clip0_1115_67">
            <rect width="30" height="26" fill="white" />
        </clipPath>
    </defs>
</svg>