<svg width="48" height="48" viewBox="0 0 48 48" fill="none" xmlns="http://www.w3.org/2000/svg">
    <g clip-path="url(#clip0_735_203)">
        <path
            d="M34.8205 33.5051C35.6798 33.5301 36.2888 34.1968 36.8564 34.7671C37.4014 35.3146 37.9677 35.8312 38.6734 36.1609C39.6647 36.6238 40.5325 35.1522 39.5355 34.6861C38.3733 34.1431 37.633 33.0892 36.6434 32.4149C36.8211 32.2174 36.9857 31.9919 37.1309 31.7274C37.6609 30.7614 36.1862 29.8997 35.6561 30.8653C35.3819 31.3652 34.9641 31.6709 34.4676 31.8576C34.4634 31.8594 34.459 31.8607 34.4546 31.8625C33.1094 32.3603 31.1884 31.9845 29.9322 32.1637C29.926 32.1647 29.9201 32.1661 29.914 32.1668C30.8092 31.6163 31.7964 31.1756 32.6467 30.7751C34.8689 29.7289 37.046 28.291 37.7532 25.8024C38.0548 24.7407 36.4071 24.2907 36.1064 25.3483C35.7737 26.5187 35.014 27.3627 34.0755 28.0356C34.1017 27.0553 34.0255 26.0712 34.7661 25.2867C35.5215 24.4866 34.3158 23.2768 33.5584 24.079C32.9573 24.7157 32.5679 25.4358 32.4321 26.3053C32.2987 27.1578 32.652 28.1757 32.2099 28.9508C32.1705 29.0196 32.1446 29.0876 32.1251 29.1546C31.3537 29.5283 30.571 29.8645 29.8704 30.2205C29.2864 30.5169 28.7109 30.8752 28.1782 31.287C29.06 28.5871 29.8592 25.6943 32.2308 24.0243C34.6831 22.2976 37.9095 22.2883 40.1051 20.0802C40.882 19.2985 39.6746 18.0909 38.8974 18.8725C38.1168 19.6576 37.1686 20.1719 36.1606 20.5938C36.5378 19.8922 36.7217 19.0969 36.8615 18.2769C37.0452 17.2002 35.3994 16.7389 35.2148 17.8228C35.022 18.9536 34.8309 19.9941 33.8068 20.6595C31.6936 22.0335 29.7555 23.4555 28.5075 25.7113C28.0623 26.5159 27.7156 27.3707 27.4034 28.2341C27.1767 28.8606 26.5058 30.0758 26.5705 30.7323C26.5196 30.2139 26.447 29.7069 26.4006 29.2073C26.3999 29.1847 26.3975 29.1622 26.3948 29.139C26.3076 28.1507 26.335 27.1883 26.8639 26.2144C28.2638 23.6376 31.1309 22.2063 31.1922 18.9559C31.213 17.8538 29.505 17.8559 29.4846 18.9559C29.4493 20.8242 28.0994 22.1499 26.8452 23.5231C26.8008 23.3392 26.7406 23.1569 26.6575 22.9784C26.3767 22.3742 25.9586 21.8692 25.7595 21.2263C25.5462 20.5369 25.6488 19.7327 25.6942 19.0263C25.7651 17.9263 24.0572 17.9332 23.9867 19.0263C23.907 20.262 23.9439 21.3802 24.4363 22.5288C24.6545 23.0379 25.0309 23.4243 25.1984 23.9642C25.3572 24.4758 25.1889 25.0977 25.0002 25.6517C24.4715 25.2575 23.8246 24.9716 23.1452 24.7965C20.7086 24.1684 18.1564 23.9277 16.9702 21.3502C16.5103 20.3507 15.0386 21.2189 15.4954 22.2122C15.6866 22.6277 15.9242 23.0113 16.1977 23.3642C16.0647 23.3567 15.9317 23.3492 15.7987 23.3416C14.8266 23.2862 14.2367 23.0574 13.9137 22.0823C13.466 20.7313 13.5543 19.4042 12.4885 18.3186C11.7161 17.5319 10.5091 18.7399 11.2808 19.5264C11.9055 20.1631 11.9667 21.0948 12.1209 21.9322C12.2792 22.7918 12.616 23.5674 13.2144 24.2071C13.7054 24.7316 14.5042 24.9375 15.1905 25.0018C16.2651 25.1026 17.3477 25.1416 18.4257 25.2C18.6705 25.3286 18.9226 25.4459 19.1808 25.5484C20.0979 25.9123 21.0326 26.1284 22.0014 26.3038C22.8008 26.4488 24.3118 26.7428 24.5644 27.6756C23.5643 27.596 22.4137 28.0497 21.5114 28.4077C20.8094 28.6863 20.0756 28.8426 19.3366 28.8912C19.2564 28.8338 19.1633 28.7851 19.0491 28.7551C18.4231 28.5893 18.0448 28.0894 17.6312 27.6243C17.1329 27.0646 16.5661 26.5999 15.9482 26.1794C15.334 25.7616 14.6212 25.4819 13.9181 25.2544C13.227 25.0308 12.3424 24.9054 11.8757 24.2857C11.2219 23.4179 9.73797 24.2673 10.4013 25.1477C11.4442 26.5322 13.0276 26.5999 14.4922 27.3101C15.0003 27.5566 15.4266 27.9163 15.8288 28.3062C15.53 28.1837 15.2372 28.0461 14.9545 27.8887C13.9908 27.3536 13.1299 28.8287 14.0924 29.3632C15.6377 30.2214 17.3165 30.6352 19.0833 30.6099C19.9494 30.5976 20.8206 30.4204 21.6454 30.1675C22.297 29.9677 24.067 28.863 24.7091 29.5283C24.7341 29.7606 24.7628 29.9937 24.7946 30.2296C24.9861 31.6491 24.9744 33.0478 24.7461 34.4429C23.7596 33.3805 22.2065 32.8796 20.7872 32.5158C18.5209 31.9351 15.9926 31.7338 14.0884 30.2402C13.2326 29.5687 12.0149 30.7685 12.8807 31.4479C13.5912 32.0053 14.3492 32.4256 15.1439 32.7586C14.3748 33.118 13.6756 33.3488 12.713 33.1614C11.6374 32.9518 11.1788 34.5976 12.259 34.8081C13.1948 34.9904 14.0767 34.9726 14.9999 34.7274C15.4851 34.5985 15.9463 34.3465 16.3704 34.0864C16.9403 33.7369 17.4618 33.7304 18.1108 33.7633C18.2195 33.7686 18.3146 33.753 18.4018 33.7273C20.1203 34.1027 23.3766 34.3859 23.9475 36.3965C23.9865 36.5333 24.0484 36.6441 24.1254 36.7322L23.6983 47.8414H27.7542L27.3271 36.1716C27.3271 36.1038 27.3214 36.0402 27.3142 35.9774C27.373 35.9165 27.428 35.8461 27.4726 35.7551C27.8462 34.992 28.3684 34.5225 28.9812 34.2291C30.1068 34.5379 30.6994 35.2846 31.5203 36.1658C32.224 36.9211 33.178 37.4309 34.1727 37.6692C35.2432 37.9257 35.6973 36.2789 34.6267 36.0225C33.3346 35.7131 32.6538 34.8479 31.8092 33.9042C31.7555 33.8444 31.696 33.7901 31.6386 33.7336C32.6784 33.6946 33.7541 33.7155 34.7143 33.4918C34.7502 33.4965 34.7833 33.504 34.8205 33.5051Z"
            fill="white" />
        <path
            d="M9.71898 27.3845C7.42636 27.3845 7.42636 30.9399 9.71898 30.9399C12.0116 30.9396 12.0116 27.3845 9.71898 27.3845Z"
            fill="white" />
        <path
            d="M8.29687 23.4734C10.5895 23.4734 10.5895 19.918 8.29687 19.918C6.00391 19.9184 6.00391 23.4734 8.29687 23.4734Z"
            fill="white" />
        <path
            d="M6.16381 24.1846C3.87118 24.1846 3.87118 27.7401 6.16381 27.7401C8.45644 27.7401 8.45644 24.1846 6.16381 24.1846Z"
            fill="white" />
        <path
            d="M16.4739 16.1852C14.1812 16.1852 14.1812 19.7406 16.4739 19.7406C18.7665 19.7406 18.7666 16.1852 16.4739 16.1852Z"
            fill="white" />
        <path
            d="M9.18578 18.3185C11.4784 18.3185 11.4784 14.7631 9.18578 14.7631C6.89315 14.7631 6.89315 18.3185 9.18578 18.3185Z"
            fill="white" />
        <path
            d="M13.2742 15.4743C15.5668 15.4743 15.5668 11.9188 13.2742 11.9188C10.9816 11.9188 10.9815 15.4743 13.2742 15.4743Z"
            fill="white" />
        <path
            d="M19.1404 12.0967C16.8477 12.0967 16.8477 15.6521 19.1404 15.6521C21.4334 15.6521 21.4334 12.0967 19.1404 12.0967Z"
            fill="white" />
        <path
            d="M20.9182 22.2292C23.2108 22.2292 23.2108 18.6738 20.9182 18.6738C18.6256 18.6741 18.6256 22.2292 20.9182 22.2292Z"
            fill="white" />
        <path
            d="M24.118 17.0741C26.4105 17.0741 26.4105 13.5187 24.118 13.5187C21.8253 13.5188 21.8253 17.0741 24.118 17.0741Z"
            fill="white" />
        <path
            d="M16.4739 8.00818C14.1812 8.00818 14.1812 11.5636 16.4739 11.5636C18.7665 11.5636 18.7666 8.00818 16.4739 8.00818Z"
            fill="white" />
        <path
            d="M22.6955 8.3634C20.4029 8.3634 20.4029 11.9188 22.6955 11.9188C24.9881 11.9188 24.9881 8.3634 22.6955 8.3634Z"
            fill="white" />
        <path
            d="M9.89623 11.741C12.1889 11.741 12.1889 8.18561 9.89623 8.18561C7.6036 8.18561 7.6036 11.741 9.89623 11.741Z"
            fill="white" />
        <path
            d="M3.85228 20.2739C6.14491 20.2739 6.14491 16.7185 3.85228 16.7185C1.55966 16.7185 1.55966 20.2739 3.85228 20.2739Z"
            fill="white" />
        <path
            d="M5.27514 10.8524C2.98251 10.8524 2.98251 14.4078 5.27514 14.4078C7.56776 14.4075 7.56776 10.8524 5.27514 10.8524Z"
            fill="white" />
        <path
            d="M17.5406 38.5834C19.8332 38.5834 19.8332 35.028 17.5406 35.028C15.2475 35.0284 15.2475 38.5834 17.5406 38.5834Z"
            fill="white" />
        <path
            d="M11.3188 40.0058C13.6115 40.0058 13.6115 36.4504 11.3188 36.4504C9.02588 36.4505 9.02588 40.0058 11.3188 40.0058Z"
            fill="white" />
        <path
            d="M7.94118 36.0948C10.2338 36.0948 10.2338 32.5394 7.94118 32.5394C5.64855 32.5394 5.64847 36.0948 7.94118 36.0948Z"
            fill="white" />
        <path
            d="M3.85228 32.7173C6.14491 32.7173 6.14491 29.1619 3.85228 29.1619C1.55966 29.1619 1.55966 32.7173 3.85228 32.7173Z"
            fill="white" />
        <path
            d="M28.9178 16.1852C31.2104 16.1852 31.2104 12.6298 28.9178 12.6298C26.6251 12.6298 26.625 16.1852 28.9178 16.1852Z"
            fill="white" />
        <path
            d="M1.71947 25.6068C4.0121 25.6068 4.0121 22.0513 1.71947 22.0513C-0.573157 22.0513 -0.573157 25.6068 1.71947 25.6068Z"
            fill="white" />
        <path
            d="M27.4954 8.00818C25.2027 8.00818 25.2027 11.5636 27.4954 11.5636C29.7881 11.5632 29.7881 8.00818 27.4954 8.00818Z"
            fill="white" />
        <path
            d="M19.6736 8.00819C21.9662 8.00819 21.9662 4.45276 19.6736 4.45276C17.3809 4.45276 17.3809 8.00819 19.6736 8.00819Z"
            fill="white" />
        <path
            d="M33.717 9.60809C31.4244 9.60809 31.4244 13.1635 33.717 13.1635C36.0097 13.1631 36.0097 9.60809 33.717 9.60809Z"
            fill="white" />
        <path
            d="M32.8284 17.9628C35.1211 17.9628 35.1211 14.4074 32.8284 14.4074C30.5358 14.4074 30.5357 17.9628 32.8284 17.9628Z"
            fill="white" />
        <path
            d="M38.3391 16.5408C40.6318 16.5408 40.6318 12.9854 38.3391 12.9854C36.0465 12.9854 36.0464 16.5408 38.3391 16.5408Z"
            fill="white" />
        <path
            d="M43.1389 23.4734C45.4315 23.4734 45.4315 19.918 43.1389 19.918C40.8463 19.9184 40.8463 23.4734 43.1389 23.4734Z"
            fill="white" />
        <path
            d="M41.8946 28.0954C44.1872 28.0954 44.1872 24.5399 41.8946 24.5399C39.6015 24.5403 39.6015 28.0954 41.8946 28.0954Z"
            fill="white" />
        <path
            d="M40.1169 29.1622C37.8243 29.1622 37.8243 32.7177 40.1169 32.7177C42.4095 32.7173 42.4095 29.1622 40.1169 29.1622Z"
            fill="white" />
        <path
            d="M45.6277 29.1622C43.335 29.1622 43.335 32.7177 45.6277 32.7177C47.9202 32.7173 47.9202 29.1622 45.6277 29.1622Z"
            fill="white" />
        <path
            d="M46.2805 23.829C43.9879 23.829 43.9879 27.3845 46.2805 27.3845C48.5731 27.3845 48.5731 23.829 46.2805 23.829Z"
            fill="white" />
        <path
            d="M42.8415 37.8725C45.1342 37.8725 45.1342 34.3171 42.8415 34.3171C40.5489 34.3171 40.5489 37.8725 42.8415 37.8725Z"
            fill="white" />
        <path
            d="M38.3972 41.7832C40.6898 41.7832 40.6898 38.2278 38.3972 38.2278C36.1046 38.2282 36.1046 41.7832 38.3972 41.7832Z"
            fill="white" />
        <path
            d="M43.4939 17.785C45.7865 17.785 45.7865 14.2296 43.4939 14.2296C41.2013 14.2296 41.2013 17.785 43.4939 17.785Z"
            fill="white" />
        <path
            d="M38.1614 7.47467C35.8687 7.47467 35.8687 11.0301 38.1614 11.0301C40.454 11.0301 40.454 7.47467 38.1614 7.47467Z"
            fill="white" />
        <path
            d="M32.4729 4.27496C30.1803 4.27496 30.1803 7.83039 32.4729 7.83039C34.7655 7.83039 34.7655 4.27496 32.4729 4.27496Z"
            fill="white" />
        <path
            d="M26.4289 2.49725C24.1363 2.49725 24.1363 6.05268 26.4289 6.05268C28.7215 6.05268 28.7216 2.49725 26.4289 2.49725Z"
            fill="white" />
        <path
            d="M13.2742 3.20837C10.9815 3.20837 10.9815 6.7638 13.2742 6.7638C15.5668 6.7638 15.5668 3.20837 13.2742 3.20837Z"
            fill="white" />
        <path
            d="M22.0769 0.159424C19.7843 0.159424 19.7843 3.71486 22.0769 3.71486C24.3695 3.71486 24.3695 0.159424 22.0769 0.159424Z"
            fill="white" />
        <path
            d="M43.4939 12.2744C45.7865 12.2744 45.7865 8.71899 43.4939 8.71899C41.2013 8.71908 41.2013 12.2744 43.4939 12.2744Z"
            fill="white" />
    </g>
    <defs>
        <clipPath id="clip0_735_203">
            <rect width="48" height="48" fill="white" />
        </clipPath>
    </defs>
</svg>